<?xml version="1.0" standalone="no"?>
<!DOCTYPE svg PUBLIC "-//W3C//DTD SVG 20010904//EN"
 "http://www.w3.org/TR/2001/REC-SVG-20010904/DTD/svg10.dtd">
<svg version="1.0" xmlns="http://www.w3.org/2000/svg"
 width="328.000000pt" height="328.000000pt" viewBox="0 0 328.000000 328.000000"
 preserveAspectRatio="xMidYMid meet">
<metadata>
Created by potrace 1.14, written by Peter Selinger 2001-2017
</metadata>
<g transform="translate(0.000000,328.000000) scale(0.100000,-0.100000)"
fill="#000000" stroke="none">
<path d="M1940 3197 c-3 -3 -27 -7 -55 -10 -239 -26 -518 -144 -735 -309 -67
-52 -233 -216 -250 -248 -9 -18 -8 -18 39 0 60 22 239 66 304 75 l48 6 -149
-148 c-156 -156 -273 -302 -363 -455 -64 -109 -141 -266 -137 -278 2 -4 32 6
68 22 36 17 100 43 143 59 l79 29 -20 -32 c-150 -247 -239 -463 -292 -713 -18
-88 -24 -121 -36 -219 l-6 -49 28 22 c115 87 159 119 162 117 1 -2 -11 -36
-28 -76 -31 -75 -89 -254 -96 -299 -3 -14 -9 -42 -14 -61 -21 -84 -42 -266
-45 -400 -3 -146 1 -200 15 -200 4 0 22 28 40 62 36 67 176 280 207 313 10 11
36 43 58 70 81 102 353 355 381 355 5 0 18 -37 28 -83 10 -45 23 -95 30 -110
l11 -29 50 74 c172 252 408 483 668 653 49 31 90 55 92 53 2 -2 6 -35 10 -72
3 -38 8 -79 10 -90 3 -12 7 -34 9 -50 5 -28 13 -43 19 -35 1 2 20 31 41 64 44
68 107 153 151 204 80 92 142 158 203 214 195 179 265 272 324 428 30 79 32
93 36 250 3 147 1 175 -17 244 -89 322 -361 564 -717 638 -66 13 -284 24 -294
14z"/>
</g>
</svg>
